# xmcd
#
# Track frame offsets:
#	21279
#	37736
#	52758
#	69012
#	87016
#	101600
#	116747
#	133571
#	148114
#	164484
#	180796
#	195158
#	217615
#	232146
#	246766
#
# Disc length: 3502 seconds
#
# Revision: 1
# Processed by: cddbd v1.5.2PL0 Copyright (c) Steve Scherf et al.
# Submitted via: audiograbber 1.83.01
#
DISCID=c00c930f
DTITLE=Nesti - Vier Jahreszeiten
DYEAR=2006
DGENRE=Hip-Hop
TTITLE0=Glaubst du?
TTITLE1=Liebe ist...
TTITLE2=Irgendwann feat. Die Firma
TTITLE3=In meinen Gedanken
TTITLE4=Revolver
TTITLE5=Raus
TTITLE6=Geschichten aus der Nachbarschaft
TTITLE7=Briefwechsel mit Torch
TTITLE8=Tötet Nesti
TTITLE9=Lass uns träumen
TTITLE10=Kein Morgen
TTITLE11=60 Sekunden
TTITLE12=Für Dich
TTITLE13=Verschwommen
TTITLE14=Planet der Affen
EXTD=
EXTT0=
EXTT1=
EXTT2=
EXTT3=
EXTT4=
EXTT5=
EXTT6=
EXTT7=
EXTT8=
EXTT9=
EXTT10=
EXTT11=
EXTT12=
EXTT13=
EXTT14=
PLAYORDER=
